<svg width="100%" height="100%" viewBox="0 0 333 307" version="1.1" xmlns="http://www.w3.org/2000/svg" xmlns:xlink="http://www.w3.org/1999/xlink" xml:space="preserve" xmlns:serif="http://www.serif.com/" style="fill-rule:evenodd;clip-rule:evenodd;stroke-linejoin:round;stroke-miterlimit:2;">
    <g transform="matrix(1,0,0,1,-96.6158,-96.6158)">
        <path d="M358.438,358.438C330.674,386.202 292.328,403.384 250,403.384C165.345,403.384 96.616,334.655 96.616,250C96.616,165.345 165.345,96.616 250,96.616C292.328,96.616 330.674,113.798 358.438,141.562L428.92,212.045L390.965,250L320.483,179.517C302.436,161.471 277.512,150.303 250,150.303C194.976,150.303 150.303,194.976 150.303,250C150.303,305.024 194.976,349.697 250,349.697C277.512,349.697 302.436,338.529 320.483,320.483L390.965,250L428.92,287.955L358.438,358.438Z" style="fill:white;"/>
    </g>
</svg>
